<?xml version="1.0" standalone="no"?><svg xmlns="http://www.w3.org/2000/svg" viewBox="0 0 1440 320"><path fill="#efa64d" fill-opacity="1" d="M0,128L26.7,133.3C53.3,139,107,149,160,144C213.3,139,267,117,320,112C373.3,107,427,117,480,144C533.3,171,587,213,640,208C693.3,203,747,149,800,154.7C853.3,160,907,224,960,229.3C1013.3,235,1067,181,1120,165.3C1173.3,149,1227,171,1280,160C1333.3,149,1387,107,1413,85.3L1440,64L1440,320L1413.3,320C1386.7,320,1333,320,1280,320C1226.7,320,1173,320,1120,320C1066.7,320,1013,320,960,320C906.7,320,853,320,800,320C746.7,320,693,320,640,320C586.7,320,533,320,480,320C426.7,320,373,320,320,320C266.7,320,213,320,160,320C106.7,320,53,320,27,320L0,320Z"></path></svg>