<?xml version="1.0" standalone="no"?><svg xmlns="http://www.w3.org/2000/svg" viewBox="0 0 1440 320"><path fill="#efa64d" fill-opacity="1" d="M0,64L26.7,90.7C53.3,117,107,171,160,208C213.3,245,267,267,320,256C373.3,245,427,203,480,165.3C533.3,128,587,96,640,112C693.3,128,747,192,800,202.7C853.3,213,907,171,960,128C1013.3,85,1067,43,1120,26.7C1173.3,11,1227,21,1280,37.3C1333.3,53,1387,75,1413,85.3L1440,96L1440,0L1413.3,0C1386.7,0,1333,0,1280,0C1226.7,0,1173,0,1120,0C1066.7,0,1013,0,960,0C906.7,0,853,0,800,0C746.7,0,693,0,640,0C586.7,0,533,0,480,0C426.7,0,373,0,320,0C266.7,0,213,0,160,0C106.7,0,53,0,27,0L0,0Z"></path></svg>